<svg width="18" height="18" viewBox="0 0 18 18" fill="none" xmlns="http://www.w3.org/2000/svg">
<path fill-rule="evenodd" clip-rule="evenodd" d="M7.66711 1.90017C6.90345 1.89011 6.1454 2.03184 5.43696 2.31712C4.72852 2.6024 4.0838 3.02556 3.54022 3.56203C2.99664 4.09849 2.56504 4.73758 2.27045 5.44221C1.97587 6.14683 1.82417 6.90295 1.82417 7.66667C1.82417 8.43039 1.97587 9.18651 2.27045 9.89113C2.56504 10.5958 2.99664 11.2348 3.54022 11.7713C4.0838 12.3078 4.72852 12.7309 5.43696 13.0162C6.1454 13.3015 6.90345 13.4432 7.66711 13.4332C9.18333 13.4132 10.6307 12.7969 11.6958 11.7176C12.761 10.6384 13.3582 9.18302 13.3582 7.66667C13.3582 6.15032 12.761 4.69498 11.6958 3.61572C10.6307 2.53647 9.18333 1.92014 7.66711 1.90017ZM0.100109 7.66717C0.088602 6.6662 0.275816 5.6729 0.650906 4.7448C1.026 3.8167 1.58151 2.97224 2.28527 2.26035C2.98902 1.54846 3.82704 0.983273 4.75076 0.597538C5.67449 0.211804 6.66558 0.0131836 7.66661 0.0131836C8.66764 0.0131836 9.65873 0.211804 10.5825 0.597538C11.5062 0.983273 12.3442 1.54846 13.048 2.26035C13.7517 2.97224 14.3072 3.8167 14.6823 4.7448C15.0574 5.6729 15.2446 6.6662 15.2331 7.66717C15.2102 9.65886 14.4029 11.5612 12.9864 12.9615C11.5699 14.3618 9.65844 15.1472 7.66661 15.1472C5.67478 15.1472 3.76328 14.3618 2.34678 12.9615C0.93027 11.5612 0.123007 9.65886 0.100109 7.66717ZM16.3631 17.6362L13.3631 14.6362L14.6361 13.3642L17.6361 16.3642L16.3631 17.6362Z" fill="#1C4DA1"/>
</svg>
